<svg width="112" height="26" viewBox="0 0 112 26" fill="none" xmlns="http://www.w3.org/2000/svg">
<path d="M13.0391 3.0498L23.9004 21.8623L21.9014 23.0166L11.6777 5.30859H8.82227V19.9268H6.51465V19.9131L4.25293 19.2393V23.0039H1.94434V18.5518L1 18.2715L1.62891 15.665L6.51465 17.1191V3H13.0303L13.0391 3.0498Z" fill="#8232FF"/>
<path d="M111.79 24.98H107.859L102.445 16.7944L99.6411 19.6626V24.98H96.2089V0.697266H99.6411V15.3765L107.134 7.62598H111.452L104.781 14.4258L111.79 24.98Z" fill="#201F24"/>
<path d="M90.9057 18.9375H94.2734C94.0049 20.9141 93.1723 22.4717 91.7758 23.6104C90.3901 24.7383 88.6176 25.3022 86.4585 25.3022C83.8589 25.3022 81.8232 24.502 80.3515 22.9014C78.9013 21.29 78.1762 19.0986 78.1762 16.3271C78.1762 13.4912 78.9336 11.2837 80.4482 9.70459C81.9951 8.09326 84.0307 7.2876 86.5551 7.2876C88.6069 7.2876 90.331 7.85156 91.7275 8.97949C93.124 10.0967 93.9619 11.5898 94.2412 13.459H90.8413C90.5835 12.374 90.0678 11.5522 89.2944 10.9937C88.521 10.4351 87.5649 10.1558 86.4262 10.1558C84.9868 10.1558 83.8266 10.6123 82.9458 11.5254C82.0757 12.4385 81.6406 13.6255 81.6406 15.0864V17.7935C81.6406 19.2222 82.0757 20.3608 82.9458 21.2095C83.8266 22.0474 84.9868 22.4663 86.4262 22.4663C87.6294 22.4663 88.623 22.1548 89.4072 21.5317C90.2021 20.9087 90.7016 20.0439 90.9057 18.9375Z" fill="#201F24"/>
<path d="M62.5766 22.9014C61.0835 21.2793 60.3369 19.0771 60.3369 16.2949C60.3369 13.5127 61.0942 11.3159 62.6089 9.70459C64.1235 8.09326 66.1699 7.2876 68.748 7.2876C71.251 7.2876 73.2759 8.09326 74.8227 9.70459C76.3804 11.2944 77.1592 13.4912 77.1592 16.2949C77.1592 19.0557 76.4126 21.2471 74.9194 22.8691C73.4263 24.4912 71.3691 25.3022 68.748 25.3022C66.1377 25.3022 64.0806 24.502 62.5766 22.9014ZM63.8013 15.022V17.7129C63.8013 19.1953 64.2578 20.3608 65.1709 21.2095C66.084 22.0474 67.2764 22.4663 68.748 22.4663C70.209 22.4663 71.3906 22.042 72.293 21.1934C73.206 20.3447 73.6626 19.1846 73.6626 17.7129V15.022C73.6626 13.5718 73.206 12.4009 72.293 11.5093C71.3799 10.6069 70.1982 10.1558 68.748 10.1558C67.2764 10.1558 66.084 10.6016 65.1709 11.4932C64.2578 12.3848 63.8013 13.561 63.8013 15.022Z" fill="#201F24"/>
<path d="M43.5933 24.98H40V0.922852H51.7466C54.0454 0.922852 55.7964 1.5459 56.9995 2.79199C58.2026 4.03809 58.8042 5.78906 58.8042 8.04492C58.8042 9.46289 58.4873 10.6768 57.8535 11.6865C57.2197 12.6963 56.3604 13.3999 55.2754 13.7974V14.0229H56.5C58.0791 14.0229 58.8687 14.8823 58.8687 16.6011V24.98H55.2432V15.9082H43.5933V24.98ZM43.5933 4.06494V12.895H50.9409C52.1978 12.895 53.1807 12.5889 53.8896 11.9766C54.6094 11.3535 54.9692 10.5156 54.9692 9.46289V7.46484C54.9692 6.3584 54.6147 5.51514 53.9058 4.93506C53.2075 4.35498 52.2192 4.06494 50.9409 4.06494H43.5933Z" fill="#201F24"/>
</svg>
