<svg width="112" height="26" viewBox="0 0 112 26" fill="none" xmlns="http://www.w3.org/2000/svg">
<path d="M13.0391 3.0498L23.9004 21.8623L21.9014 23.0166L11.6777 5.30859H8.82227V19.9268H6.51465V19.9131L4.25293 19.2393V23.0039H1.94434V18.5518L1 18.2715L1.62891 15.665L6.51465 17.1191V3H13.0303L13.0391 3.0498Z" fill="white"/>
<path d="M111.933 25H108.001L102.587 16.8145L99.7831 19.6826V25H96.351V0.717285H99.7831V15.3965L107.276 7.646H111.594L104.923 14.4458L111.933 25Z" fill="white"/>
<path d="M91.0478 18.9575H94.4155C94.1469 20.9341 93.3144 22.4917 91.9179 23.6304C90.5322 24.7583 88.7597 25.3223 86.6005 25.3223C84.0009 25.3223 81.9653 24.522 80.4936 22.9214C79.0434 21.3101 78.3183 19.1187 78.3183 16.3472C78.3183 13.5112 79.0756 11.3037 80.5903 9.72461C82.1371 8.11328 84.1728 7.30762 86.6972 7.30762C88.749 7.30762 90.4731 7.87158 91.8696 8.99951C93.2661 10.1167 94.1039 11.6099 94.3832 13.479H90.9833C90.7255 12.394 90.2099 11.5723 89.4365 11.0137C88.663 10.4551 87.707 10.1758 86.5683 10.1758C85.1288 10.1758 83.9687 10.6323 83.0878 11.5454C82.2177 12.4585 81.7827 13.6455 81.7827 15.1064V17.8135C81.7827 19.2422 82.2177 20.3809 83.0878 21.2295C83.9687 22.0674 85.1288 22.4863 86.5683 22.4863C87.7714 22.4863 88.7651 22.1748 89.5493 21.5518C90.3442 20.9287 90.8437 20.064 91.0478 18.9575Z" fill="white"/>
<path d="M62.7188 22.9214C61.2256 21.2993 60.479 19.0972 60.479 16.3149C60.479 13.5327 61.2363 11.3359 62.751 9.72461C64.2656 8.11328 66.312 7.30762 68.8901 7.30762C71.3931 7.30762 73.418 8.11328 74.9648 9.72461C76.5225 11.3145 77.3013 13.5112 77.3013 16.3149C77.3013 19.0757 76.5547 21.2671 75.0615 22.8892C73.5684 24.5112 71.5112 25.3223 68.8901 25.3223C66.2798 25.3223 64.2227 24.522 62.7188 22.9214ZM63.9434 15.042V17.7329C63.9434 19.2153 64.3999 20.3809 65.313 21.2295C66.2261 22.0674 67.4185 22.4863 68.8901 22.4863C70.3511 22.4863 71.5327 22.062 72.4351 21.2134C73.3481 20.3647 73.8047 19.2046 73.8047 17.7329V15.042C73.8047 13.5918 73.3481 12.4209 72.4351 11.5293C71.522 10.627 70.3403 10.1758 68.8901 10.1758C67.4185 10.1758 66.2261 10.6216 65.313 11.5132C64.3999 12.4048 63.9434 13.5811 63.9434 15.042Z" fill="white"/>
<path d="M43.7354 25H40.1421V0.942871H51.8887C54.1875 0.942871 55.9385 1.56592 57.1416 2.81201C58.3447 4.05811 58.9463 5.80908 58.9463 8.06494C58.9463 9.48291 58.6294 10.6968 57.9956 11.7065C57.3618 12.7163 56.5024 13.4199 55.4175 13.8174V14.043H56.6421C58.2212 14.043 59.0107 14.9023 59.0107 16.6211V25H55.3853V15.9282H43.7354V25ZM43.7354 4.08496V12.915H51.083C52.3398 12.915 53.3228 12.6089 54.0317 11.9966C54.7515 11.3735 55.1113 10.5356 55.1113 9.48291V7.48486C55.1113 6.37842 54.7568 5.53516 54.0479 4.95508C53.3496 4.375 52.3613 4.08496 51.083 4.08496H43.7354Z" fill="white"/>
</svg>
